<?xml version="1.0" ?><!DOCTYPE svg  PUBLIC '-//W3C//DTD SVG 1.1//EN'  'http://www.w3.org/Graphics/SVG/1.1/DTD/svg11.dtd'><svg enable-background="new 0 0 25 25" height="25px" version="1.1" viewBox="0 0 25 25" width="25px" xml:space="preserve" xmlns="http://www.w3.org/2000/svg" xmlns:xlink="http://www.w3.org/1999/xlink"><g id="Ebene_2"/><g id="Ebene_1"><g><path d="M18.5,9h-0.551c-0.11-0.542-0.403-1.013-0.802-1.366C17.661,7.271,18,6.676,18,6c0-1.161-1.007-2.084-2.176-1.992    C15.413,2.818,14.297,2,13,2c-0.452,0-0.899,0.105-1.309,0.307C11.324,2.105,10.918,2,10.5,2C9.428,2,8.511,2.679,8.156,3.629    C7.715,3.238,7.135,3,6.5,3C5.122,3,4,4.121,4,5.5c0,0.781,0.377,1.52,1,1.989V11.5c0,0.651,0.419,1.201,1,1.408V20.5    C6,21.879,7.122,23,8.5,23h7c1.378,0,2.5-1.121,2.5-2.5V17h0.5c1.378,0,2.5-1.121,2.5-2.5v-3C21,10.121,19.878,9,18.5,9z M5,5.5    C5,4.673,5.673,4,6.5,4S8,4.673,8,5.5C8,5.776,8.224,6,8.5,6h0.277c0.179,0,0.344-0.096,0.434-0.251    C9.3,5.594,9.299,5.403,9.209,5.248C9.07,5.01,9,4.758,9,4.5C9,3.673,9.673,3,10.5,3c0.314,0,0.618,0.101,0.879,0.292    c0.167,0.12,0.388,0.129,0.561,0.019C12.264,3.107,12.63,3,13,3c0.983,0,1.811,0.708,1.966,1.684    c0.024,0.149,0.114,0.279,0.245,0.354s0.289,0.086,0.43,0.032C16.319,4.805,17,5.33,17,6c0,0.552-0.449,1-1,1    c-0.343,0-0.658-0.176-0.844-0.47c-0.08-0.127-0.213-0.212-0.363-0.229c-0.148-0.021-0.299,0.032-0.407,0.136    c-0.689,0.665-1.803,0.746-2.584,0.153c-0.152-0.115-0.354-0.135-0.524-0.049C11.107,6.625,11,6.799,11,6.988V8.5    C11,8.775,10.776,9,10.5,9S10,8.775,10,8.5v-1C10,7.224,9.776,7,9.5,7h-2C7.224,7,7,7.224,7,7.5v4C7,11.775,6.776,12,6.5,12    S6,11.775,6,11.5V7.223C6,7.045,5.905,6.88,5.751,6.791C5.281,6.517,5,6.034,5,5.5z M17,20.5c0,0.827-0.673,1.5-1.5,1.5h-7    C7.673,22,7,21.327,7,20.5v-7.592c0.581-0.207,1-0.757,1-1.408V8h1v0.5C9,9.327,9.673,10,10.5,10S12,9.327,12,8.5V7.825    c0.876,0.316,1.896,0.186,2.669-0.335c0.127,0.114,0.272,0.204,0.423,0.282C15.182,7.906,15.327,8,15.5,8    C16.327,8,17,8.673,17,9.5V20.5z M20,14.5c0,0.827-0.673,1.5-1.5,1.5H18v-6h0.5c0.827,0,1.5,0.673,1.5,1.5V14.5z"/><path d="M9.5,12C9.224,12,9,12.224,9,12.5v6C9,18.776,9.224,19,9.5,19s0.5-0.224,0.5-0.5v-6C10,12.224,9.776,12,9.5,12z"/><path d="M12,12c-0.276,0-0.5,0.224-0.5,0.5v6c0,0.276,0.224,0.5,0.5,0.5s0.5-0.224,0.5-0.5v-6C12.5,12.224,12.276,12,12,12z"/><path d="M14.5,12c-0.276,0-0.5,0.224-0.5,0.5v6c0,0.276,0.224,0.5,0.5,0.5s0.5-0.224,0.5-0.5v-6C15,12.224,14.776,12,14.5,12z"/><path d="M13,4.5c0.276,0,0.5,0.225,0.5,0.5c0,0.276,0.224,0.5,0.5,0.5s0.5-0.224,0.5-0.5c0-0.827-0.673-1.5-1.5-1.5    c-0.276,0-0.5,0.224-0.5,0.5S12.724,4.5,13,4.5z"/></g></g></svg>