<?xml version="1.0" ?><!DOCTYPE svg  PUBLIC '-//W3C//DTD SVG 1.1//EN'  'http://www.w3.org/Graphics/SVG/1.1/DTD/svg11.dtd'><svg enable-background="new 0 0 24 24" height="24px" id="Layer_1" version="1.1" viewBox="0 0 24 24" width="24px" xml:space="preserve" xmlns="http://www.w3.org/2000/svg" xmlns:xlink="http://www.w3.org/1999/xlink"><g><path d="M23,7V4c0-2.2-1.8-4-4-4H5C2.8,0,1,1.8,1,4v3C0.4,7,0,7.4,0,8v3c0,0.6,0.4,1,1,1v8c0,0.6,0.4,1,1,1h1v2c0,0.6,0.4,1,1,1h3   c0.6,0,1-0.4,1-1v-2h8v2c0,0.6,0.4,1,1,1h3c0.6,0,1-0.4,1-1v-2h1c0.6,0,1-0.4,1-1v-8c0.6,0,1-0.4,1-1V8C24,7.4,23.6,7,23,7z M1,8h1   v3H1V8z M7,23H4v-2h3V23z M20,23h-3v-2h3V23z M21,19H3v-8V9V4c0-1.1,0.9-2,2-2h14c1.1,0,2,0.9,2,2v5v2V19z M23,11h-1V8h1V11z"/><path d="M18,14c-1.1,0-2,0.9-2,2s0.9,2,2,2s2-0.9,2-2S19.1,14,18,14z M18,17c-0.6,0-1-0.4-1-1s0.4-1,1-1s1,0.4,1,1S18.6,17,18,17z"/><path d="M6,14c-1.1,0-2,0.9-2,2s0.9,2,2,2s2-0.9,2-2S7.1,14,6,14z M6,17c-0.6,0-1-0.4-1-1s0.4-1,1-1s1,0.4,1,1S6.6,17,6,17z"/><path d="M19,3H5C4.4,3,4,3.4,4,4v9h16V4C20,3.4,19.6,3,19,3z M19,12H5V4h14V12z"/><rect height="1" width="6" x="9" y="14"/><rect height="1" width="6" x="9" y="17"/></g></svg>